<?xml version="1.0" encoding="UTF-8"?>
<svg xmlns="http://www.w3.org/2000/svg" xmlns:xlink="http://www.w3.org/1999/xlink" width="px" height="px" viewBox="0 0 33 33" version="1.1">
<g id="surface1">
<path style=" stroke:none;fill-rule:evenodd;fill:rgb(34.509804%,34.509804%,34.509804%);fill-opacity:1;" d="M 20.589844 15.894531 C 21.015625 15.894531 21.359375 16.238281 21.359375 16.664062 L 21.359375 25.90625 C 21.351562 26.847656 20.609375 27.535156 19.6875 27.863281 C 19.132812 28.097656 19.601562 29.074219 19.175781 29.125 C 15.613281 29.441406 12.019531 29.257812 8.445312 29.125 C 8.140625 29.105469 8.21875 28.644531 8.21875 28.28125 C 8.203125 28.101562 8.089844 27.941406 7.921875 27.867188 C 6.960938 27.523438 6.277344 26.847656 6.253906 25.941406 C 6.222656 22.851562 6.246094 19.757812 6.253906 16.664062 C 6.253906 16.242188 6.597656 15.894531 7.019531 15.894531 Z M 22.261719 17.027344 C 22.261719 16.929688 22.332031 16.84375 22.425781 16.824219 C 22.589844 16.789062 22.804688 16.742188 22.921875 16.722656 C 23.269531 16.652344 23.621094 16.609375 23.976562 16.59375 C 25.40625 16.667969 26.550781 17.8125 26.628906 19.246094 C 26.644531 20.488281 26.742188 21.96875 26.511719 22.851562 C 26.226562 23.902344 25.492188 24.773438 24.507812 25.234375 C 24.117188 25.40625 23.363281 25.773438 22.621094 26.121094 C 22.542969 26.15625 22.449219 26.152344 22.378906 26.105469 C 22.304688 26.058594 22.261719 25.976562 22.261719 25.890625 L 22.261719 25.460938 C 22.261719 25.359375 22.320312 25.269531 22.410156 25.226562 C 23.234375 24.90625 24.023438 24.503906 24.769531 24.027344 C 25.964844 23.015625 25.761719 21.070312 25.738281 19.273438 C 25.707031 18.757812 25.46875 18.277344 25.074219 17.945312 C 24.679688 17.609375 24.167969 17.449219 23.65625 17.503906 C 23.289062 17.566406 22.875 17.675781 22.523438 17.746094 C 22.523438 17.746094 22.519531 17.746094 22.519531 17.746094 C 22.457031 17.757812 22.390625 17.742188 22.339844 17.703125 C 22.289062 17.664062 22.261719 17.605469 22.257812 17.539062 L 22.257812 17.027344 Z M 15.628906 18.953125 C 15.925781 19.121094 16.191406 19.351562 16.398438 19.625 C 18.105469 21.910156 15.589844 26.398438 12.550781 25.554688 C 12.347656 25.5 12.152344 25.417969 11.96875 25.3125 C 11.820312 25.226562 11.679688 25.128906 11.550781 25.015625 C 11.445312 24.917969 11.347656 24.8125 11.257812 24.703125 C 9.636719 22.660156 11.378906 18.789062 14.214844 18.621094 C 14.277344 18.617188 14.34375 18.617188 14.40625 18.617188 C 14.828125 18.628906 15.238281 18.738281 15.605469 18.945312 C 15.613281 18.945312 15.621094 18.949219 15.625 18.953125 Z M 15.914062 20.617188 C 15.855469 20.492188 15.730469 20.40625 15.589844 20.398438 C 15.453125 20.390625 15.320312 20.464844 15.253906 20.585938 C 14.566406 21.789062 13.851562 22.972656 13.148438 24.164062 C 13.074219 24.292969 13.078125 24.449219 13.160156 24.574219 C 13.242188 24.695312 13.386719 24.757812 13.53125 24.734375 C 14.992188 24.347656 16.027344 23.054688 16.097656 21.546875 C 16.097656 21.230469 16.035156 20.910156 15.914062 20.617188 Z M 14.632812 19.808594 C 14.664062 19.75 14.667969 19.675781 14.636719 19.613281 C 14.601562 19.550781 14.539062 19.511719 14.46875 19.507812 C 14.425781 19.507812 14.382812 19.507812 14.339844 19.507812 C 12.46875 19.539062 10.988281 22.144531 11.671875 23.722656 C 11.730469 23.84375 11.851562 23.925781 11.988281 23.929688 C 12.125 23.929688 12.25 23.859375 12.316406 23.738281 C 13.070312 22.421875 13.863281 21.121094 14.632812 19.8125 Z M 13.867188 3.601562 C 14.011719 3.625 14.132812 3.71875 14.199219 3.847656 C 14.265625 3.980469 14.261719 4.132812 14.195312 4.265625 C 14.035156 4.558594 13.902344 4.871094 13.804688 5.195312 C 13.363281 6.808594 14.550781 8.425781 14.769531 10.070312 C 14.914062 11.148438 14.714844 12.242188 14.203125 13.199219 C 14.101562 13.339844 13.945312 13.425781 13.773438 13.433594 C 13.625 13.417969 13.492188 13.332031 13.421875 13.203125 C 13.351562 13.070312 13.351562 12.914062 13.421875 12.78125 C 13.582031 12.460938 13.710938 12.125 13.808594 11.777344 C 14.21875 10.101562 13.019531 8.429688 12.820312 6.785156 C 12.695312 5.753906 12.910156 4.714844 13.429688 3.820312 C 13.511719 3.65625 13.691406 3.566406 13.867188 3.601562 Z M 10.46875 5.773438 C 10.617188 5.792969 10.742188 5.886719 10.808594 6.015625 C 10.875 6.148438 10.875 6.304688 10.804688 6.433594 C 10.507812 7.089844 10.453125 7.832031 10.65625 8.527344 C 10.910156 9.042969 11.09375 9.589844 11.207031 10.152344 C 11.304688 10.894531 11.167969 11.644531 10.816406 12.304688 C 10.71875 12.4375 10.566406 12.523438 10.398438 12.539062 C 10.253906 12.519531 10.125 12.433594 10.050781 12.304688 C 9.980469 12.179688 9.972656 12.023438 10.035156 11.890625 C 10.335938 11.171875 10.378906 10.371094 10.15625 9.628906 C 9.910156 9.121094 9.726562 8.585938 9.621094 8.035156 C 9.535156 7.324219 9.683594 6.609375 10.042969 5.992188 C 10.128906 5.839844 10.296875 5.753906 10.472656 5.773438 Z M 17.242188 5.773438 C 17.386719 5.792969 17.511719 5.886719 17.578125 6.015625 C 17.644531 6.148438 17.644531 6.304688 17.578125 6.433594 C 17.277344 7.089844 17.222656 7.832031 17.425781 8.527344 C 17.679688 9.042969 17.863281 9.589844 17.976562 10.152344 C 18.074219 10.894531 17.9375 11.644531 17.585938 12.304688 C 17.523438 12.398438 17.429688 12.476562 17.324219 12.519531 C 17.15625 12.554688 16.980469 12.496094 16.871094 12.363281 C 16.761719 12.230469 16.738281 12.046875 16.804688 11.886719 C 17.105469 11.171875 17.148438 10.371094 16.925781 9.625 C 16.679688 9.121094 16.496094 8.585938 16.390625 8.03125 C 16.304688 7.324219 16.453125 6.605469 16.8125 5.988281 C 16.898438 5.839844 17.066406 5.753906 17.242188 5.773438 Z M 17.242188 5.773438 "/>
</g>
</svg>
