<?xml version="1.0" encoding="UTF-8"?>
<svg xmlns="http://www.w3.org/2000/svg" xmlns:xlink="http://www.w3.org/1999/xlink" width="px" height="px" viewBox="0 0 25 25" version="1.1">
<g id="surface1">
<path style=" stroke:none;fill-rule:nonzero;fill:rgb(34.509804%,34.509804%,34.509804%);fill-opacity:1;" d="M 23.582031 16.492188 L 20.40625 18.371094 C 20.144531 18.519531 19.8125 18.4375 19.652344 18.183594 C 19.578125 18.0625 19.554688 17.914062 19.589844 17.773438 C 19.625 17.632812 19.714844 17.511719 19.839844 17.4375 L 20 17.347656 L 19.117188 16.039062 C 19.035156 15.917969 19.003906 15.769531 19.035156 15.628906 C 19.0625 15.488281 19.148438 15.363281 19.269531 15.285156 C 19.519531 15.117188 19.859375 15.1875 20.03125 15.4375 L 20.945312 16.785156 L 23.367188 15.351562 L 22.664062 11.636719 C 22.511719 10.863281 21.832031 10.304688 21.042969 10.308594 L 12.605469 10.308594 C 11.816406 10.304688 11.132812 10.863281 10.984375 11.636719 L 9.675781 18.566406 L 12.144531 17.960938 L 13.6875 16.4375 C 13.902344 16.226562 14.246094 16.226562 14.460938 16.4375 C 14.566406 16.539062 14.625 16.675781 14.625 16.820312 C 14.625 16.964844 14.566406 17.105469 14.460938 17.207031 L 12.8125 18.832031 C 12.742188 18.902344 12.652344 18.953125 12.558594 18.976562 L 9.449219 19.742188 L 8.707031 23.671875 C 8.648438 23.992188 8.734375 24.320312 8.941406 24.566406 C 9.152344 24.816406 9.460938 24.960938 9.785156 24.960938 L 14.496094 24.960938 C 14.972656 24.964844 15.398438 24.660156 15.546875 24.210938 L 16.824219 20.351562 L 18.097656 24.210938 C 18.25 24.660156 18.671875 24.964844 19.148438 24.960938 L 23.859375 24.960938 C 24.1875 24.960938 24.496094 24.816406 24.703125 24.566406 C 24.914062 24.320312 25 23.992188 24.9375 23.671875 Z M 19.574219 11.394531 L 21.039062 11.394531 C 21.304688 11.394531 21.535156 11.578125 21.585938 11.839844 L 21.8125 13.019531 L 19.574219 13.019531 Z M 14.074219 13.023438 L 11.835938 13.023438 L 12.0625 11.839844 C 12.113281 11.578125 12.34375 11.394531 12.605469 11.394531 L 14.074219 11.394531 Z M 14.496094 23.875 L 9.785156 23.875 L 9.988281 22.789062 L 14.859375 22.789062 Z M 18.472656 13.023438 L 15.175781 13.023438 L 15.175781 11.394531 L 18.472656 11.394531 Z M 19.144531 23.875 L 18.789062 22.789062 L 23.660156 22.789062 L 23.863281 23.875 Z M 8.78125 17.363281 L 5.277344 17.363281 C 4.671875 17.367188 4.179688 16.878906 4.175781 16.277344 L 4.175781 11.1875 L 6.019531 10.277344 L 6.984375 12.179688 C 7.121094 12.449219 7.449219 12.558594 7.722656 12.421875 C 7.851562 12.359375 7.953125 12.246094 7.996094 12.109375 C 8.042969 11.972656 8.035156 11.824219 7.96875 11.695312 L 7.003906 9.792969 L 7.78125 9.410156 L 8.085938 10.007812 C 8.222656 10.277344 8.554688 10.386719 8.824219 10.253906 C 8.953125 10.191406 9.054688 10.078125 9.097656 9.941406 C 9.144531 9.804688 9.136719 9.652344 9.070312 9.523438 L 8.765625 8.925781 L 9.371094 8.625 C 9.5 8.558594 9.601562 8.449219 9.648438 8.3125 C 9.691406 8.175781 9.683594 8.023438 9.617188 7.894531 C 9.480469 7.625 9.152344 7.519531 8.878906 7.652344 L 8.273438 7.953125 L 7.964844 7.351562 C 7.828125 7.082031 7.5 6.976562 7.230469 7.109375 C 7.097656 7.171875 7 7.285156 6.953125 7.421875 C 6.90625 7.558594 6.917969 7.710938 6.984375 7.839844 L 7.289062 8.4375 L 4.175781 9.972656 L 4.175781 8.320312 L 3.183594 8.609375 C 2.746094 8.734375 2.273438 8.582031 1.996094 8.21875 L 0.222656 5.894531 C 0.046875 5.664062 -0.03125 5.375 0.0117188 5.085938 C 0.0507812 4.800781 0.207031 4.542969 0.441406 4.371094 L 6.230469 0.109375 C 6.394531 -0.015625 6.617188 -0.0351562 6.804688 0.0546875 C 8.601562 1.003906 10.75 1.003906 12.550781 0.0546875 C 12.734375 -0.0351562 12.957031 -0.015625 13.121094 0.109375 L 14.582031 1.183594 L 13.273438 3.339844 L 13.222656 3.3125 C 12.957031 3.171875 12.625 3.273438 12.484375 3.535156 C 12.414062 3.664062 12.402344 3.8125 12.445312 3.949219 C 12.484375 4.085938 12.582031 4.199219 12.710938 4.265625 L 12.503906 4.605469 C 12.40625 4.769531 12.40625 4.980469 12.503906 5.148438 C 12.601562 5.316406 12.78125 5.421875 12.976562 5.421875 C 13.167969 5.421875 13.34375 5.324219 13.449219 5.164062 L 13.695312 4.757812 L 13.832031 4.824219 C 14.101562 4.960938 14.429688 4.851562 14.566406 4.582031 C 14.632812 4.453125 14.640625 4.304688 14.597656 4.167969 C 14.550781 4.03125 14.453125 3.917969 14.320312 3.855469 L 14.261719 3.828125 L 15.46875 1.835938 L 18.910156 4.371094 C 19.144531 4.542969 19.300781 4.800781 19.339844 5.085938 C 19.382812 5.375 19.304688 5.664062 19.132812 5.894531 L 17.355469 8.21875 C 17.078125 8.582031 16.605469 8.734375 16.167969 8.609375 L 15.175781 8.320312 L 15.175781 9.222656 L 12.605469 9.222656 C 11.289062 9.214844 10.152344 10.144531 9.902344 11.441406 Z M 8.78125 17.363281 "/>
</g>
</svg>
