<?xml version="1.0" encoding="UTF-8"?>
<svg xmlns="http://www.w3.org/2000/svg" xmlns:xlink="http://www.w3.org/1999/xlink" width="px" height="px" viewBox="0 0 26 27" version="1.1">
<g id="surface1">
<path style=" stroke:none;fill-rule:nonzero;fill:rgb(34.509804%,34.509804%,34.509804%);fill-opacity:1;" d="M 25.839844 16.902344 C 25.84375 15.421875 24.621094 14.132812 22.878906 13.777344 C 22.488281 10.445312 19.683594 7.636719 15.785156 6.675781 C 16.101562 5.394531 15.113281 4.136719 13.558594 3.847656 C 13.558594 3.835938 13.558594 3.824219 13.558594 3.808594 L 13.558594 3.339844 C 13.566406 2.460938 13.875 1.613281 14.433594 0.925781 L 14.539062 0.792969 C 14.628906 0.679688 14.660156 0.53125 14.625 0.394531 C 14.589844 0.257812 14.492188 0.140625 14.359375 0.0859375 C 14.074219 -0.0703125 13.714844 -0.0078125 13.5 0.234375 L 13.394531 0.367188 C 12.703125 1.210938 12.324219 2.261719 12.316406 3.34375 L 12.316406 3.808594 C 12.316406 3.820312 12.316406 3.832031 12.316406 3.839844 C 10.742188 4.113281 9.730469 5.378906 10.050781 6.675781 C 6.152344 7.636719 3.347656 10.445312 2.957031 13.777344 C 1.113281 14.15625 -0.132812 15.578125 0.0078125 17.136719 C 0.148438 18.695312 1.632812 19.949219 3.523438 20.101562 L 5.167969 25.289062 C 5.597656 26.367188 6.679688 27.054688 7.859375 27 L 17.96875 27 C 19.148438 27.054688 20.230469 26.367188 20.660156 25.289062 L 22.304688 20.101562 C 24.3125 19.941406 25.835938 18.554688 25.839844 16.902344 Z M 7.863281 25.976562 C 7.214844 26.007812 6.613281 25.628906 6.378906 25.03125 L 4.792969 20.035156 C 5.464844 19.914062 6.097656 19.628906 6.632812 19.214844 L 8.777344 25.976562 Z M 10.707031 25.976562 L 8.804688 19.988281 C 9.875 20.253906 11.007812 20.125 11.988281 19.632812 L 11.988281 25.976562 Z M 15.132812 25.976562 L 13.851562 25.976562 L 13.851562 19.628906 C 14.835938 20.125 15.964844 20.25 17.035156 19.984375 L 15.136719 25.976562 Z M 19.460938 25.03125 C 19.226562 25.628906 18.625 26.007812 17.976562 25.976562 L 17.0625 25.976562 L 19.207031 19.214844 C 19.742188 19.628906 20.375 19.914062 21.046875 20.035156 Z M 21.925781 19.097656 C 20.9375 19.128906 20.003906 18.628906 19.492188 17.796875 C 19.367188 17.609375 19.152344 17.496094 18.925781 17.496094 C 18.695312 17.496094 18.484375 17.609375 18.359375 17.796875 C 17.824219 18.605469 16.90625 19.09375 15.921875 19.09375 C 14.9375 19.09375 14.023438 18.605469 13.488281 17.796875 C 13.363281 17.609375 13.148438 17.496094 12.921875 17.496094 C 12.691406 17.496094 12.476562 17.609375 12.351562 17.796875 C 11.816406 18.605469 10.902344 19.09375 9.917969 19.09375 C 8.933594 19.09375 8.019531 18.605469 7.480469 17.796875 C 7.359375 17.609375 7.144531 17.496094 6.914062 17.496094 C 6.6875 17.496094 6.472656 17.609375 6.347656 17.796875 C 5.699219 18.816406 4.457031 19.3125 3.269531 19.03125 C 2.015625 18.773438 1.164062 17.8125 1.25 16.753906 C 1.335938 15.691406 2.332031 14.835938 3.617188 14.714844 C 3.898438 14.710938 4.132812 14.503906 4.167969 14.230469 C 4.335938 11.121094 6.917969 8.449219 10.566406 7.617188 C 11.179688 8.246094 12.03125 8.601562 12.921875 8.601562 C 13.808594 8.601562 14.660156 8.246094 15.277344 7.617188 C 18.925781 8.449219 21.503906 11.117188 21.671875 14.230469 C 21.707031 14.503906 21.941406 14.710938 22.222656 14.714844 C 23.632812 14.84375 24.671875 15.855469 24.59375 17.019531 C 24.515625 18.183594 23.34375 19.09375 21.929688 19.09375 Z M 21.925781 19.097656 "/>
<path style=" stroke:none;fill-rule:nonzero;fill:rgb(34.509804%,34.509804%,34.509804%);fill-opacity:1;" d="M 9.535156 10.058594 L 8.253906 11.3125 C 8.019531 11.542969 8.019531 11.917969 8.253906 12.148438 C 8.492188 12.378906 8.871094 12.378906 9.109375 12.148438 L 10.386719 10.894531 C 10.625 10.664062 10.625 10.289062 10.386719 10.058594 C 10.152344 9.828125 9.769531 9.828125 9.535156 10.058594 Z M 9.535156 10.058594 "/>
<path style=" stroke:none;fill-rule:nonzero;fill:rgb(34.509804%,34.509804%,34.509804%);fill-opacity:1;" d="M 16.644531 10.058594 L 15.367188 11.3125 C 15.128906 11.542969 15.128906 11.917969 15.367188 12.148438 C 15.601562 12.378906 15.984375 12.378906 16.21875 12.148438 L 17.5 10.894531 C 17.734375 10.664062 17.734375 10.289062 17.5 10.058594 C 17.261719 9.828125 16.878906 9.828125 16.644531 10.058594 Z M 16.644531 10.058594 "/>
<path style=" stroke:none;fill-rule:nonzero;fill:rgb(34.509804%,34.509804%,34.509804%);fill-opacity:1;" d="M 12.953125 12.242188 C 12.800781 12.085938 12.574219 12.023438 12.363281 12.078125 C 12.152344 12.132812 11.984375 12.292969 11.929688 12.503906 C 11.875 12.710938 11.941406 12.929688 12.097656 13.078125 L 13.378906 14.332031 C 13.613281 14.566406 13.996094 14.566406 14.230469 14.332031 C 14.46875 14.101562 14.46875 13.726562 14.230469 13.496094 Z M 12.953125 12.242188 "/>
</g>
</svg>
