<?xml version="1.0" encoding="UTF-8"?>
<svg xmlns="http://www.w3.org/2000/svg" xmlns:xlink="http://www.w3.org/1999/xlink" width="px" height="px" viewBox="0 0 32 27" version="1.1">
<g id="surface1">
<path style=" stroke:none;fill-rule:nonzero;fill:rgb(34.509804%,34.509804%,34.509804%);fill-opacity:1;" d="M 32 10.664062 C 32 10.632812 31.996094 10.597656 31.988281 10.566406 L 31.988281 6.996094 C 31.988281 6.972656 31.984375 6.945312 31.980469 6.921875 C 31.980469 6.914062 31.980469 6.910156 31.976562 6.90625 C 31.972656 6.882812 31.964844 6.859375 31.957031 6.835938 L 31.953125 6.828125 C 31.945312 6.816406 31.941406 6.800781 31.933594 6.789062 L 29.183594 2.007812 L 29.183594 1.132812 C 29.179688 0.503906 28.675781 -0.00390625 28.054688 0 L 19.292969 0 C 18.671875 0 18.171875 0.503906 18.167969 1.132812 L 18.167969 2.007812 L 15.414062 6.785156 C 15.40625 6.800781 15.402344 6.8125 15.394531 6.824219 L 15.390625 6.835938 C 15.382812 6.859375 15.375 6.882812 15.371094 6.902344 C 15.371094 6.910156 15.367188 6.914062 15.367188 6.921875 C 15.363281 6.945312 15.359375 6.972656 15.359375 6.996094 L 15.359375 17.09375 L 13.667969 17.09375 L 13.667969 13.558594 C 13.671875 12.617188 13.308594 11.714844 12.660156 11.046875 C 12.230469 10.671875 11.957031 10.148438 11.890625 9.578125 C 12.113281 9.582031 12.296875 9.394531 12.300781 9.164062 L 12.300781 7.585938 C 12.296875 7.03125 11.851562 6.585938 11.308594 6.585938 L 8.390625 6.585938 C 7.84375 6.585938 7.402344 7.03125 7.398438 7.585938 L 7.398438 9.164062 C 7.398438 9.394531 7.582031 9.578125 7.808594 9.578125 L 7.851562 9.578125 C 7.78125 10.148438 7.507812 10.671875 7.078125 11.042969 C 6.429688 11.714844 6.066406 12.617188 6.070312 13.554688 L 6.070312 17.09375 L 4.488281 17.09375 C 2.875 17.085938 1.5625 18.40625 1.550781 20.046875 L 1.550781 24.355469 L 1.523438 24.355469 C 0.6875 24.351562 0.00390625 25.039062 0 25.890625 L 0 26.578125 C 0 26.808594 0.183594 26.992188 0.410156 26.992188 L 21.175781 26.992188 L 21.175781 27 L 31.574219 27 C 31.800781 27 31.984375 26.816406 31.988281 26.585938 L 31.988281 22.996094 C 31.996094 22.964844 32 22.933594 32 22.902344 Z M 16.183594 7.410156 L 25.554688 7.410156 L 25.554688 10.25 L 16.183594 10.25 Z M 28.769531 2.945312 L 30.863281 6.582031 L 26.679688 6.582031 Z M 26.375 11.078125 L 31.164062 11.078125 L 31.164062 22.488281 L 26.375 22.488281 Z M 26.375 10.25 L 26.375 7.410156 L 31.164062 7.410156 L 31.164062 10.25 Z M 18.988281 1.132812 C 18.988281 0.964844 19.125 0.824219 19.292969 0.828125 L 28.054688 0.828125 C 28.222656 0.824219 28.359375 0.964844 28.359375 1.132812 L 28.359375 1.707031 L 18.988281 1.707031 Z M 18.8125 2.535156 L 28.058594 2.535156 L 25.726562 6.582031 L 16.484375 6.582031 Z M 16.183594 11.078125 L 25.554688 11.078125 L 25.554688 22.488281 L 20.277344 22.488281 L 20.277344 20.136719 C 20.472656 20.171875 20.671875 20.1875 20.867188 20.1875 C 22.714844 20.167969 24.199219 18.636719 24.1875 16.757812 C 24.175781 14.882812 22.671875 13.371094 20.824219 13.375 C 18.976562 13.382812 17.480469 14.90625 17.480469 16.78125 C 17.480469 16.886719 17.488281 16.992188 17.5 17.097656 C 17.445312 17.09375 17.394531 17.09375 17.339844 17.09375 L 16.183594 17.09375 Z M 17.339844 17.921875 C 18.5 17.917969 19.449219 18.867188 19.453125 20.046875 L 19.453125 24.359375 L 14.179688 24.359375 L 14.179688 20.046875 C 14.179688 19.242188 13.851562 18.472656 13.277344 17.921875 Z M 18.304688 16.78125 C 18.292969 15.726562 18.914062 14.769531 19.871094 14.359375 C 20.828125 13.949219 21.933594 14.164062 22.671875 14.90625 C 23.410156 15.648438 23.632812 16.769531 23.238281 17.746094 C 22.84375 18.722656 21.90625 19.359375 20.867188 19.359375 C 20.632812 19.359375 20.398438 19.324219 20.171875 19.261719 C 19.914062 18.339844 19.238281 17.601562 18.351562 17.273438 C 18.320312 17.113281 18.304688 16.945312 18.304688 16.78125 Z M 8.222656 7.585938 C 8.222656 7.492188 8.296875 7.414062 8.390625 7.414062 L 11.308594 7.414062 C 11.402344 7.414062 11.480469 7.492188 11.480469 7.585938 L 11.480469 8.75 L 8.222656 8.75 Z M 7.671875 11.621094 C 8.25 11.09375 8.609375 10.363281 8.675781 9.578125 L 11.066406 9.578125 C 11.132812 10.363281 11.492188 11.09375 12.070312 11.621094 C 12.570312 12.136719 12.851562 12.832031 12.847656 13.558594 L 12.847656 17.09375 L 6.890625 17.09375 L 6.890625 13.558594 C 6.890625 12.832031 7.171875 12.136719 7.671875 11.621094 Z M 2.375 20.046875 C 2.382812 18.867188 3.328125 17.917969 4.488281 17.921875 L 11.242188 17.921875 C 12.402344 17.917969 13.347656 18.867188 13.355469 20.046875 L 13.355469 24.359375 L 2.375 24.359375 Z M 20.761719 26.164062 L 0.824219 26.164062 L 0.824219 25.890625 C 0.824219 25.5 1.140625 25.183594 1.523438 25.1875 L 20.0625 25.1875 C 20.445312 25.183594 20.761719 25.5 20.761719 25.890625 Z M 20.277344 24.375 L 20.277344 23.316406 L 25.554688 23.316406 L 25.554688 26.171875 L 21.585938 26.171875 L 21.585938 25.890625 C 21.582031 25.125 21.023438 24.480469 20.277344 24.375 Z M 26.375 26.175781 L 26.375 23.316406 L 31.164062 23.316406 L 31.164062 26.171875 Z M 26.375 26.175781 "/>
<path style=" stroke:none;fill-rule:nonzero;fill:rgb(34.509804%,34.509804%,34.509804%);fill-opacity:1;" d="M 21.027344 13.488281 C 22.671875 13.488281 24 14.839844 24 16.503906 C 24 18.171875 22.671875 19.523438 21.027344 19.523438 C 19.386719 19.523438 18.058594 18.171875 18.058594 16.503906 C 18.058594 14.839844 19.386719 13.488281 21.027344 13.488281 Z M 21.027344 13.488281 "/>
<path style=" stroke:none;fill-rule:nonzero;fill:rgb(34.509804%,34.509804%,34.509804%);fill-opacity:1;" d="M 9.867188 13.484375 C 10.363281 13.484375 10.761719 13.894531 10.761719 14.394531 C 10.761719 14.898438 10.363281 15.304688 9.867188 15.304688 C 9.371094 15.304688 8.972656 14.898438 8.972656 14.394531 C 8.972656 13.894531 9.371094 13.484375 9.867188 13.484375 Z M 9.867188 13.484375 "/>
<path style=" stroke:none;fill-rule:nonzero;fill:rgb(34.509804%,34.509804%,34.509804%);fill-opacity:1;" d="M 7.90625 7.28125 L 11.734375 7.28125 L 11.734375 8.851562 L 7.90625 8.851562 Z M 7.90625 7.28125 "/>
<path style=" stroke:none;fill-rule:nonzero;fill:rgb(34.509804%,34.509804%,34.509804%);fill-opacity:1;" d="M 18.808594 0.578125 L 28.660156 0.578125 L 28.660156 2.152344 L 18.808594 2.152344 Z M 18.808594 0.578125 "/>
<path style=" stroke:none;fill-rule:nonzero;fill:rgb(34.509804%,34.509804%,34.509804%);fill-opacity:1;" d="M 0.570312 24.984375 L 20.847656 24.984375 L 20.847656 26.558594 L 0.570312 26.558594 Z M 0.570312 24.984375 "/>
</g>
</svg>
