<?xml version="1.0" encoding="UTF-8"?>
<svg xmlns="http://www.w3.org/2000/svg" xmlns:xlink="http://www.w3.org/1999/xlink" width="px" height="px" viewBox="0 0 28 27" version="1.1">
<g id="surface1">
<path style=" stroke:none;fill-rule:nonzero;fill:rgb(34.509804%,34.509804%,34.509804%);fill-opacity:1;" d="M 21.15625 3.96875 L 21.015625 4.105469 L 19.832031 2.964844 C 19.441406 2.535156 18.761719 2.492188 18.308594 2.867188 L 17.457031 3.6875 C 17.402344 3.742188 17.351562 3.804688 17.3125 3.875 L 17.242188 3.804688 C 16.847656 3.371094 16.167969 3.324219 15.714844 3.703125 L 14.863281 4.523438 C 14.472656 4.960938 14.519531 5.617188 14.96875 5.996094 L 17.050781 8.003906 C 17.144531 8.082031 17.152344 8.21875 17.070312 8.308594 L 8.617188 16.460938 C 8.523438 16.542969 8.378906 16.53125 8.296875 16.441406 L 6.214844 14.433594 C 5.824219 14.003906 5.144531 13.957031 4.691406 14.332031 L 3.839844 15.152344 C 3.449219 15.589844 3.496094 16.246094 3.945312 16.625 L 4.015625 16.695312 C 3.945312 16.730469 3.882812 16.777344 3.824219 16.835938 L 2.972656 17.65625 C 2.582031 18.089844 2.628906 18.746094 3.074219 19.125 L 4.257812 20.265625 L 4.117188 20.398438 C 3.441406 21.136719 3.492188 22.257812 4.230469 22.933594 C 4.589844 23.308594 5.078125 23.539062 5.605469 23.589844 C 6.089844 23.640625 6.570312 23.480469 6.917969 23.152344 L 7.085938 22.992188 L 8.34375 24.207031 C 8.738281 24.640625 9.417969 24.683594 9.871094 24.308594 L 10.722656 23.488281 C 10.78125 23.433594 10.828125 23.371094 10.867188 23.300781 L 10.941406 23.371094 C 11.332031 23.800781 12.015625 23.847656 12.464844 23.472656 L 13.316406 22.652344 C 13.707031 22.214844 13.660156 21.558594 13.210938 21.179688 L 11.074219 19.121094 C 10.980469 19.042969 10.972656 18.90625 11.054688 18.816406 L 19.507812 10.660156 C 19.601562 10.582031 19.746094 10.59375 19.828125 10.683594 L 21.960938 12.742188 C 22.355469 13.175781 23.035156 13.21875 23.488281 12.84375 L 24.339844 12.023438 C 24.730469 11.585938 24.683594 10.929688 24.234375 10.550781 L 24.164062 10.480469 C 24.234375 10.441406 24.300781 10.394531 24.355469 10.339844 L 25.210938 9.519531 C 25.597656 9.082031 25.550781 8.425781 25.101562 8.046875 L 23.84375 6.832031 L 24.011719 6.671875 C 24.347656 6.335938 24.515625 5.871094 24.464844 5.40625 C 24.410156 4.898438 24.167969 4.425781 23.785156 4.078125 C 23.082031 3.367188 21.917969 3.316406 21.15625 3.96875 Z M 10.078125 22.539062 C 10.183594 22.628906 10.195312 22.785156 10.101562 22.886719 L 9.25 23.710938 C 9.140625 23.796875 8.980469 23.789062 8.886719 23.683594 L 3.617188 18.605469 C 3.511719 18.515625 3.5 18.359375 3.59375 18.253906 L 4.445312 17.433594 C 4.550781 17.34375 4.714844 17.355469 4.808594 17.457031 Z M 12.671875 21.703125 C 12.777344 21.792969 12.789062 21.949219 12.695312 22.050781 L 11.84375 22.875 C 11.738281 22.960938 11.574219 22.949219 11.480469 22.847656 L 4.484375 16.101562 C 4.378906 16.011719 4.367188 15.855469 4.460938 15.753906 L 5.3125 14.929688 C 5.421875 14.84375 5.582031 14.855469 5.675781 14.957031 Z M 17.5625 5.15625 L 23.695312 11.070312 C 23.800781 11.160156 23.8125 11.316406 23.71875 11.421875 L 22.867188 12.242188 C 22.761719 12.332031 22.597656 12.320312 22.503906 12.21875 L 15.507812 5.472656 C 15.402344 5.382812 15.390625 5.226562 15.484375 5.125 L 16.335938 4.300781 C 16.445312 4.210938 16.605469 4.222656 16.699219 4.324219 Z M 20.78125 4.925781 L 24.5625 8.570312 C 24.667969 8.660156 24.679688 8.816406 24.585938 8.917969 L 23.734375 9.742188 C 23.628906 9.828125 23.464844 9.820312 23.371094 9.714844 L 18.101562 4.636719 C 17.996094 4.546875 17.984375 4.390625 18.078125 4.285156 L 18.929688 3.464844 C 19.039062 3.375 19.199219 3.386719 19.292969 3.488281 Z M 20.78125 4.925781 "/>
</g>
</svg>
