<?xml version="1.0" encoding="UTF-8"?>
<svg xmlns="http://www.w3.org/2000/svg" xmlns:xlink="http://www.w3.org/1999/xlink" width="px" height="px" viewBox="0 0 18 28" version="1.1">
<g id="surface1">
<path style=" stroke:none;fill-rule:nonzero;fill:rgb(34.509804%,34.509804%,34.509804%);fill-opacity:1;" d="M 17.929688 11.828125 C 17.945312 11.664062 17.988281 11.503906 18.050781 11.351562 C 18.195312 11.042969 18.230469 10.695312 18.160156 10.363281 C 18.03125 10.0625 17.804688 9.808594 17.519531 9.644531 C 17.492188 9.625 17.46875 9.601562 17.4375 9.582031 C 17.476562 9.261719 17.496094 8.9375 17.5 8.613281 C 17.5 3.863281 13.734375 0 9.101562 0 C 4.472656 0 0.707031 3.863281 0.707031 8.613281 C 0.707031 8.9375 0.726562 9.261719 0.765625 9.582031 C 0.738281 9.601562 0.714844 9.625 0.683594 9.644531 C 0.398438 9.808594 0.171875 10.058594 0.0429688 10.363281 C -0.0273438 10.695312 0.0117188 11.042969 0.15625 11.351562 C 0.3125 11.652344 0.3125 12.007812 0.15625 12.308594 C 0.0117188 12.617188 -0.0273438 12.964844 0.0429688 13.296875 C 0.171875 13.597656 0.398438 13.851562 0.683594 14.015625 C 0.828125 14.105469 0.953125 14.214844 1.0625 14.34375 C 1.132812 14.488281 1.179688 14.640625 1.203125 14.800781 C 1.242188 15.128906 1.382812 15.441406 1.605469 15.691406 C 1.84375 15.882812 2.136719 15.992188 2.441406 16.015625 C 2.617188 16.03125 2.785156 16.078125 2.941406 16.152344 C 3.066406 16.261719 3.167969 16.390625 3.246094 16.535156 C 3.390625 16.816406 3.617188 17.050781 3.894531 17.210938 C 3.910156 17.21875 3.929688 17.21875 3.949219 17.226562 L 7.789062 26.980469 C 7.988281 27.527344 8.515625 27.890625 9.101562 27.886719 C 9.6875 27.890625 10.214844 27.527344 10.414062 26.980469 L 14.253906 17.226562 C 14.273438 17.21875 14.292969 17.21875 14.308594 17.210938 C 14.585938 17.050781 14.8125 16.816406 14.957031 16.535156 C 15.035156 16.390625 15.136719 16.261719 15.261719 16.15625 C 15.417969 16.078125 15.589844 16.03125 15.761719 16.015625 C 16.066406 15.996094 16.359375 15.882812 16.601562 15.695312 C 16.820312 15.445312 16.960938 15.132812 17 14.800781 C 17.023438 14.640625 17.070312 14.488281 17.140625 14.34375 C 17.25 14.214844 17.375 14.105469 17.519531 14.015625 C 17.804688 13.851562 18.03125 13.597656 18.160156 13.296875 C 18.230469 12.964844 18.191406 12.617188 18.050781 12.308594 C 17.988281 12.15625 17.945312 11.996094 17.929688 11.828125 Z M 15.332031 10.570312 C 15.230469 10.570312 15.132812 10.519531 15.074219 10.441406 C 15.011719 10.355469 14.988281 10.25 15.015625 10.148438 C 15.144531 9.648438 15.207031 9.128906 15.207031 8.613281 C 15.207031 8.433594 15.355469 8.289062 15.535156 8.289062 C 15.71875 8.289062 15.863281 8.433594 15.863281 8.613281 C 15.863281 9.1875 15.792969 9.761719 15.648438 10.320312 C 15.617188 10.464844 15.484375 10.570312 15.332031 10.574219 Z M 2.382812 9.335938 C 2.355469 9.09375 2.34375 8.851562 2.34375 8.613281 C 2.339844 7.65625 2.535156 6.714844 2.910156 5.835938 C 2.941406 5.753906 3.007812 5.691406 3.085938 5.660156 C 3.167969 5.625 3.261719 5.628906 3.339844 5.664062 C 3.507812 5.742188 3.582031 5.9375 3.507812 6.105469 C 3.167969 6.898438 2.996094 7.75 2.996094 8.613281 C 2.996094 8.828125 3.007812 9.046875 3.03125 9.261719 C 3.054688 9.445312 2.925781 9.609375 2.742188 9.632812 C 2.730469 9.632812 2.71875 9.632812 2.707031 9.632812 C 2.535156 9.628906 2.398438 9.5 2.382812 9.335938 Z M 2.964844 13.917969 C 2.804688 13.824219 2.742188 13.625 2.832031 13.460938 C 2.871094 13.382812 2.9375 13.324219 3.023438 13.300781 C 3.105469 13.273438 3.195312 13.28125 3.273438 13.324219 C 3.476562 13.453125 3.648438 13.621094 3.777344 13.820312 C 3.867188 13.964844 3.992188 14.089844 4.144531 14.175781 C 4.324219 14.214844 4.507812 14.214844 4.683594 14.175781 C 4.945312 14.132812 5.210938 14.132812 5.46875 14.1875 C 5.703125 14.265625 5.921875 14.390625 6.105469 14.558594 C 6.234375 14.683594 6.394531 14.777344 6.566406 14.832031 C 6.75 14.835938 6.929688 14.800781 7.097656 14.730469 C 7.34375 14.636719 7.605469 14.589844 7.867188 14.59375 C 8.050781 14.609375 8.1875 14.773438 8.167969 14.953125 C 8.164062 15.042969 8.125 15.125 8.058594 15.179688 C 7.992188 15.238281 7.90625 15.269531 7.816406 15.261719 C 7.636719 15.269531 7.457031 15.304688 7.289062 15.371094 C 7.078125 15.453125 6.855469 15.5 6.628906 15.511719 C 6.570312 15.511719 6.515625 15.507812 6.457031 15.496094 C 6.175781 15.429688 5.914062 15.289062 5.703125 15.089844 C 5.585938 14.980469 5.449219 14.894531 5.300781 14.835938 C 5.117188 14.808594 4.933594 14.8125 4.753906 14.84375 C 4.472656 14.902344 4.183594 14.886719 3.90625 14.804688 C 3.640625 14.679688 3.414062 14.480469 3.257812 14.230469 C 3.179688 14.109375 3.078125 14.003906 2.960938 13.917969 Z M 5.691406 3.421875 C 5.511719 3.546875 5.335938 3.683594 5.171875 3.828125 C 5.105469 3.882812 5.019531 3.914062 4.929688 3.90625 C 4.84375 3.898438 4.761719 3.855469 4.707031 3.785156 C 4.59375 3.644531 4.609375 3.433594 4.746094 3.3125 C 4.929688 3.152344 5.125 3.003906 5.324219 2.867188 C 5.394531 2.816406 5.484375 2.796875 5.570312 2.8125 C 5.65625 2.832031 5.730469 2.882812 5.777344 2.957031 C 5.878906 3.109375 5.84375 3.3125 5.691406 3.421875 Z M 9.804688 26.726562 C 9.699219 27.023438 9.417969 27.21875 9.101562 27.214844 C 8.785156 27.21875 8.503906 27.023438 8.394531 26.726562 L 4.671875 17.269531 L 4.765625 17.257812 C 5.101562 17.128906 5.480469 17.246094 5.683594 17.542969 C 5.886719 17.773438 6.15625 17.941406 6.453125 18.027344 C 6.746094 18.058594 7.042969 18.007812 7.308594 17.878906 C 7.609375 17.675781 8.011719 17.710938 8.265625 17.964844 C 8.742188 18.386719 9.464844 18.386719 9.941406 17.964844 C 10.074219 17.863281 10.226562 17.792969 10.390625 17.75 C 10.566406 17.757812 10.738281 17.804688 10.898438 17.878906 C 11.164062 18.007812 11.460938 18.058594 11.753906 18.027344 C 12.050781 17.941406 12.316406 17.773438 12.523438 17.542969 C 12.632812 17.421875 12.765625 17.320312 12.917969 17.246094 C 13.089844 17.214844 13.269531 17.21875 13.441406 17.257812 L 13.535156 17.269531 Z M 9.804688 26.726562 "/>
<path style=" stroke:none;fill-rule:nonzero;fill:rgb(34.509804%,34.509804%,34.509804%);fill-opacity:1;" d="M 7.019531 19.652344 C 6.929688 19.558594 6.796875 19.523438 6.675781 19.554688 C 6.550781 19.585938 6.457031 19.683594 6.421875 19.804688 C 6.390625 19.925781 6.429688 20.058594 6.519531 20.144531 L 9.929688 23.519531 C 10.019531 23.613281 10.152344 23.652344 10.277344 23.621094 C 10.402344 23.589844 10.5 23.492188 10.53125 23.367188 C 10.5625 23.246094 10.523438 23.113281 10.429688 23.027344 Z M 7.019531 19.652344 "/>
<path style=" stroke:none;fill-rule:nonzero;fill:rgb(34.509804%,34.509804%,34.509804%);fill-opacity:1;" d="M 9.964844 18.875 C 9.875 18.78125 9.742188 18.742188 9.617188 18.773438 C 9.492188 18.804688 9.394531 18.902344 9.363281 19.027344 C 9.332031 19.152344 9.371094 19.28125 9.464844 19.367188 L 10.957031 20.84375 C 11.09375 20.980469 11.316406 20.980469 11.457031 20.84375 C 11.59375 20.710938 11.59375 20.488281 11.457031 20.351562 Z M 9.964844 18.875 "/>
</g>
</svg>
