<?xml version="1.0" encoding="UTF-8"?>
<svg xmlns="http://www.w3.org/2000/svg" xmlns:xlink="http://www.w3.org/1999/xlink" width="px" height="px" viewBox="0 0 30 22" version="1.1">
<g id="surface1">
<path style=" stroke:none;fill-rule:nonzero;fill:rgb(34.509804%,34.509804%,34.509804%);fill-opacity:1;" d="M 2.667969 12.523438 L 2.265625 13.964844 L 3.113281 12.730469 Z M 2.667969 12.523438 "/>
<path style=" stroke:none;fill-rule:nonzero;fill:rgb(34.509804%,34.509804%,34.509804%);fill-opacity:1;" d="M 4.5 13.285156 L 4.132812 14.652344 L 4.945312 13.496094 Z M 4.5 13.285156 "/>
<path style=" stroke:none;fill-rule:nonzero;fill:rgb(34.509804%,34.509804%,34.509804%);fill-opacity:1;" d="M 11.929688 16.796875 L 11.546875 18.199219 L 12.375 17.003906 Z M 11.929688 16.796875 "/>
<path style=" stroke:none;fill-rule:nonzero;fill:rgb(34.509804%,34.509804%,34.509804%);fill-opacity:1;" d="M 16.292969 18.964844 L 15.890625 20.40625 L 16.738281 19.171875 Z M 16.292969 18.964844 "/>
<path style=" stroke:none;fill-rule:nonzero;fill:rgb(34.509804%,34.509804%,34.509804%);fill-opacity:1;" d="M 18.902344 20.09375 L 18.503906 21.535156 L 19.347656 20.300781 Z M 18.902344 20.09375 "/>
<path style=" stroke:none;fill-rule:nonzero;fill:rgb(34.509804%,34.509804%,34.509804%);fill-opacity:1;" d="M 5.226562 2.222656 C 3.550781 3.976562 0.5 7.664062 0.679688 10.691406 C 2.410156 11.796875 4.328125 12.582031 6.339844 13.011719 C 8.367188 13.550781 10.320312 14.054688 12.074219 15.914062 C 12.695312 16.429688 14.757812 17.617188 21.003906 20.074219 C 23.292969 20.964844 25.769531 20.261719 26.34375 19.035156 C 26.84375 17.957031 25.832031 16.535156 23.640625 15.242188 L 23.535156 15.195312 C 23.484375 15.175781 23.441406 15.140625 23.414062 15.089844 C 22.402344 14.214844 16.515625 9.523438 13.78125 5.714844 C 13.332031 5.117188 12.953125 4.472656 12.660156 3.789062 C 12.550781 3.558594 12.480469 3.523438 12.480469 3.523438 C 12.234375 3.5 11.539062 4.441406 11.15625 4.988281 C 10.214844 6.265625 9.101562 7.738281 7.832031 7.507812 C 6.757812 7.324219 6.292969 6.203125 5.519531 3.625 "/>
<path style=" stroke:none;fill-rule:nonzero;fill:rgb(34.509804%,34.509804%,34.509804%);fill-opacity:1;" d="M 12.496094 6.832031 C 12.425781 6.808594 12.371094 6.765625 12.324219 6.707031 C 12.257812 6.617188 12.230469 6.503906 12.246094 6.394531 C 12.265625 6.28125 12.328125 6.183594 12.421875 6.117188 L 13.734375 5.148438 C 13.921875 5.011719 14.183594 5.054688 14.320312 5.242188 C 14.457031 5.429688 14.417969 5.695312 14.226562 5.832031 L 12.914062 6.800781 C 12.785156 6.875 12.632812 6.886719 12.496094 6.832031 Z M 12.496094 6.832031 "/>
<path style=" stroke:none;fill-rule:nonzero;fill:rgb(34.509804%,34.509804%,34.509804%);fill-opacity:1;" d="M 14.121094 8.496094 C 14.054688 8.472656 13.996094 8.429688 13.953125 8.375 C 13.886719 8.285156 13.855469 8.171875 13.875 8.058594 C 13.894531 7.949219 13.953125 7.847656 14.046875 7.785156 L 15.214844 6.925781 C 15.40625 6.789062 15.667969 6.832031 15.804688 7.019531 C 15.941406 7.207031 15.902344 7.472656 15.710938 7.609375 L 14.542969 8.464844 C 14.417969 8.550781 14.257812 8.5625 14.121094 8.496094 Z M 14.121094 8.496094 "/>
<path style=" stroke:none;fill-rule:nonzero;fill:rgb(34.509804%,34.509804%,34.509804%);fill-opacity:1;" d="M 15.894531 9.949219 C 15.828125 9.925781 15.769531 9.882812 15.726562 9.824219 C 15.65625 9.734375 15.628906 9.621094 15.648438 9.511719 C 15.664062 9.398438 15.726562 9.300781 15.820312 9.234375 L 16.789062 8.511719 C 16.980469 8.375 17.242188 8.414062 17.378906 8.605469 C 17.515625 8.792969 17.476562 9.058594 17.285156 9.195312 L 16.316406 9.917969 C 16.191406 10 16.03125 10.011719 15.894531 9.949219 Z M 15.894531 9.949219 "/>
<path style=" stroke:none;fill-rule:nonzero;fill:rgb(34.509804%,34.509804%,34.509804%);fill-opacity:1;" d="M 17.539062 11.210938 C 17.464844 11.175781 17.429688 11.160156 17.40625 11.105469 C 17.335938 11.023438 17.300781 10.917969 17.316406 10.808594 C 17.332031 10.703125 17.394531 10.609375 17.484375 10.550781 L 18.273438 9.925781 C 18.351562 9.855469 18.460938 9.824219 18.566406 9.839844 C 18.671875 9.855469 18.765625 9.914062 18.824219 10.003906 C 18.898438 10.082031 18.929688 10.191406 18.917969 10.296875 C 18.902344 10.40625 18.839844 10.5 18.75 10.554688 L 17.960938 11.179688 C 17.832031 11.253906 17.675781 11.265625 17.539062 11.210938 Z M 17.539062 11.210938 "/>
<path style=" stroke:none;fill-rule:nonzero;fill:rgb(34.509804%,34.509804%,34.509804%);fill-opacity:1;" d="M 17.65625 12.441406 C 16.269531 11.703125 15 10.757812 13.890625 9.648438 C 12.050781 7.972656 11.011719 6.992188 10.410156 6.441406 C 9.433594 5.53125 9.375 5.460938 9.640625 5.175781 C 9.925781 4.855469 10.246094 5.140625 10.339844 5.230469 C 10.378906 5.25 10.398438 5.304688 10.433594 5.320312 C 10.773438 5.660156 11.714844 6.550781 14.40625 9.027344 C 17.605469 11.964844 18.964844 12.058594 19.40625 11.992188 C 19.582031 11.960938 19.734375 11.847656 19.816406 11.6875 C 19.914062 11.496094 20.128906 11.390625 20.34375 11.433594 C 20.546875 11.519531 20.65625 11.746094 20.59375 11.960938 C 20.417969 12.367188 20.058594 12.667969 19.625 12.773438 C 18.953125 12.90625 18.25 12.785156 17.65625 12.441406 Z M 17.65625 12.441406 "/>
<path style=" stroke:none;fill-rule:nonzero;fill:rgb(34.509804%,34.509804%,34.509804%);fill-opacity:1;" d="M 1.578125 6.519531 C 1.421875 6.429688 1.328125 6.261719 1.328125 6.085938 C 1.375 5.871094 1.578125 5.730469 1.796875 5.757812 L 4.90625 6.261719 C 5.054688 6.285156 5.175781 6.382812 5.226562 6.523438 C 5.277344 6.660156 5.25 6.816406 5.152344 6.925781 C 5.058594 7.039062 4.90625 7.085938 4.765625 7.054688 L 1.648438 6.554688 Z M 1.578125 6.519531 "/>
<path style=" stroke:none;fill-rule:nonzero;fill:rgb(34.509804%,34.509804%,34.509804%);fill-opacity:1;" d="M 0.886719 8 C 0.730469 7.910156 0.636719 7.746094 0.636719 7.566406 C 0.6875 7.351562 0.890625 7.210938 1.105469 7.242188 L 4.21875 7.746094 C 4.363281 7.765625 4.484375 7.867188 4.535156 8.003906 C 4.585938 8.140625 4.558594 8.296875 4.464844 8.40625 C 4.367188 8.519531 4.21875 8.570312 4.074219 8.539062 L 0.960938 8.035156 Z M 0.886719 8 "/>
</g>
</svg>
