<?xml version="1.0" encoding="UTF-8"?>
<svg xmlns="http://www.w3.org/2000/svg" xmlns:xlink="http://www.w3.org/1999/xlink" width="px" height="px" viewBox="0 0 25 27" version="1.1">
<g id="surface1">
<path style=" stroke:none;fill-rule:nonzero;fill:rgb(34.509804%,34.509804%,34.509804%);fill-opacity:1;" d="M 10.039062 0.746094 C 10.042969 0.546875 9.964844 0.359375 9.820312 0.21875 C 9.679688 0.078125 9.488281 0 9.289062 -0.00390625 L 0.746094 -0.00390625 C 0.546875 0 0.355469 0.078125 0.214844 0.21875 C 0.0742188 0.359375 -0.00390625 0.546875 -0.00390625 0.746094 L -0.00390625 26.144531 C -0.00390625 26.34375 0.0742188 26.53125 0.214844 26.671875 C 0.355469 26.8125 0.546875 26.890625 0.746094 26.894531 L 9.289062 26.894531 C 9.492188 26.890625 9.683594 26.8125 9.824219 26.671875 C 9.964844 26.53125 10.042969 26.34375 10.039062 26.144531 L 10.039062 25.75 C 10.066406 25.511719 9.988281 25.273438 9.824219 25.097656 C 9.664062 24.921875 9.429688 24.820312 9.1875 24.824219 L 2.980469 24.824219 C 1.9375 24.824219 1.75 24.238281 1.726562 23.9375 L 1.726562 22.707031 C 1.730469 22.496094 1.824219 21.820312 2.886719 21.820312 L 7.109375 21.820312 C 7.359375 21.847656 7.609375 21.769531 7.800781 21.605469 C 7.988281 21.441406 8.101562 21.207031 8.109375 20.957031 L 8.109375 20.613281 C 8.113281 20.4375 8.046875 20.269531 7.921875 20.140625 C 7.796875 20.015625 7.625 19.945312 7.449219 19.945312 L 2.910156 19.945312 C 2.617188 19.988281 2.320312 19.90625 2.09375 19.722656 C 1.871094 19.539062 1.734375 19.265625 1.726562 18.976562 L 1.726562 17.519531 C 1.75 17.210938 1.921875 16.640625 2.886719 16.640625 L 7.328125 16.640625 C 7.554688 16.640625 7.769531 16.542969 7.917969 16.375 C 8.066406 16.207031 8.136719 15.984375 8.109375 15.761719 L 8.109375 15.480469 C 8.117188 15.292969 8.042969 15.109375 7.910156 14.976562 C 7.777344 14.839844 7.597656 14.765625 7.40625 14.765625 L 2.980469 14.765625 C 1.949219 14.765625 1.753906 14.171875 1.726562 13.832031 L 1.726562 12.394531 C 1.753906 12.121094 1.933594 11.648438 2.898438 11.648438 L 7.21875 11.648438 C 7.457031 11.660156 7.691406 11.570312 7.863281 11.402344 C 8.035156 11.234375 8.121094 11.003906 8.105469 10.765625 L 8.105469 10.613281 C 8.101562 10.371094 7.992188 10.144531 7.808594 9.984375 C 7.625 9.828125 7.382812 9.75 7.140625 9.773438 L 2.636719 9.773438 C 2.300781 9.742188 1.726562 9.550781 1.726562 8.542969 L 1.726562 7.480469 C 1.753906 7.171875 1.941406 6.652344 2.910156 6.652344 L 7.246094 6.652344 C 7.484375 6.667969 7.714844 6.582031 7.878906 6.414062 C 8.042969 6.25 8.128906 6.023438 8.109375 5.792969 L 8.109375 5.59375 C 8.109375 4.753906 6.984375 4.777344 6.984375 4.777344 L 2.828125 4.777344 C 1.910156 4.777344 1.746094 4.203125 1.726562 3.898438 L 1.726562 2.828125 C 1.75 2.582031 1.910156 2.09375 2.816406 2.09375 L 9.128906 2.09375 C 9.367188 2.113281 9.601562 2.03125 9.777344 1.871094 C 9.949219 1.710938 10.046875 1.488281 10.039062 1.253906 Z M 10.039062 0.746094 "/>
<path style=" stroke:none;fill-rule:nonzero;fill:rgb(34.509804%,34.509804%,34.509804%);fill-opacity:1;" d="M 24.820312 0.535156 C 24.644531 0.179688 24.320312 0.0390625 23.617188 0.246094 C 23.097656 0.445312 22.660156 0.804688 22.363281 1.269531 C 22.363281 1.269531 22.359375 1.269531 22.359375 1.273438 C 22.144531 1.550781 21.9375 1.378906 21.9375 1.378906 L 21.9375 1.386719 C 21.816406 1.3125 21.683594 1.253906 21.546875 1.21875 C 20.183594 0.863281 18.671875 2.140625 18.167969 4.066406 C 17.707031 5.824219 18.253906 7.507812 19.390625 8.058594 L 19.382812 8.070312 C 19.496094 8.152344 19.570312 8.277344 19.589844 8.410156 C 19.609375 8.546875 19.570312 8.6875 19.488281 8.796875 L 18.535156 10.554688 L 17.714844 11.902344 C 17.441406 12.34375 17.140625 11.902344 17.140625 11.902344 L 15.414062 8.789062 C 15.015625 8.066406 15.488281 7.753906 15.488281 7.753906 L 15.484375 7.746094 C 16.304688 7.015625 16.65625 5.574219 16.261719 4.066406 C 15.757812 2.140625 14.242188 0.863281 12.878906 1.214844 C 11.511719 1.570312 10.816406 3.421875 11.320312 5.347656 C 11.707031 6.828125 12.691406 7.914062 13.742188 8.183594 L 13.738281 8.1875 C 14.128906 8.332031 14.425781 8.652344 14.539062 9.046875 L 16.148438 13.582031 C 16.269531 13.90625 16.25 14.257812 16.09375 14.566406 L 15.730469 15.167969 C 15.617188 15.417969 15.53125 15.679688 15.46875 15.949219 L 13.824219 26.808594 C 13.824219 26.808594 13.917969 26.992188 13.984375 26.808594 L 17.222656 17.695312 C 17.222656 17.695312 17.449219 17.253906 17.605469 17.695312 L 20.84375 26.800781 C 20.84375 26.804688 20.996094 27.003906 21.070312 26.800781 L 19.265625 16.050781 C 19.191406 15.75 19.085938 15.453125 18.957031 15.171875 L 18.734375 14.769531 C 18.566406 14.429688 18.535156 14.042969 18.648438 13.683594 L 20.394531 8.769531 C 20.394531 8.765625 20.394531 8.765625 20.394531 8.765625 C 20.5 8.476562 20.703125 8.238281 20.972656 8.089844 C 21.019531 8.074219 21.066406 8.046875 21.109375 8.027344 C 21.15625 8.003906 21.179688 8 21.179688 8 L 21.164062 7.996094 C 22.160156 7.417969 22.863281 6.457031 23.109375 5.347656 C 23.238281 4.851562 23.285156 4.335938 23.253906 3.824219 L 23.261719 3.832031 L 23.269531 3.585938 C 23.160156 1.652344 23.894531 1.554688 24.351562 1.460938 C 24.542969 1.40625 24.703125 1.273438 24.792969 1.097656 C 24.882812 0.925781 24.894531 0.71875 24.820312 0.535156 Z M 14.417969 6.742188 C 13.613281 6.953125 12.722656 6.199219 12.425781 5.0625 C 12.128906 3.925781 12.539062 2.835938 13.34375 2.628906 C 14.148438 2.421875 15.039062 3.171875 15.335938 4.308594 C 15.632812 5.445312 15.222656 6.535156 14.417969 6.742188 Z M 22.003906 5.0625 C 21.707031 6.199219 20.816406 6.949219 20.011719 6.742188 C 19.210938 6.535156 18.796875 5.445312 19.09375 4.308594 C 19.390625 3.171875 20.28125 2.417969 21.085938 2.628906 C 21.890625 2.835938 22.300781 3.925781 22.003906 5.0625 Z M 22.003906 5.0625 "/>
</g>
</svg>
