<?xml version="1.0" encoding="UTF-8"?>
<svg xmlns="http://www.w3.org/2000/svg" xmlns:xlink="http://www.w3.org/1999/xlink" width="px" height="px" viewBox="0 0 36 36" version="1.1">
<g id="surface1">
<path style=" stroke:none;fill-rule:nonzero;fill:rgb(22.352941%,22.352941%,22.352941%);fill-opacity:1;" d="M 4.292969 7.339844 L 7.339844 7.339844 L 7.339844 4.292969 C 5.65625 4.292969 4.292969 5.65625 4.292969 7.339844 Z M 4.292969 19.523438 L 7.339844 19.523438 L 7.339844 16.476562 L 4.292969 16.476562 Z M 10.386719 31.707031 L 13.429688 31.707031 L 13.429688 28.660156 L 10.386719 28.660156 Z M 4.292969 13.429688 L 7.339844 13.429688 L 7.339844 10.386719 L 4.292969 10.386719 Z M 19.523438 4.292969 L 16.476562 4.292969 L 16.476562 7.339844 L 19.523438 7.339844 Z M 28.660156 4.292969 L 28.660156 7.339844 L 31.707031 7.339844 C 31.707031 5.65625 30.34375 4.292969 28.660156 4.292969 Z M 7.339844 31.707031 L 7.339844 28.660156 L 4.292969 28.660156 C 4.292969 30.34375 5.65625 31.707031 7.339844 31.707031 Z M 4.292969 25.613281 L 7.339844 25.613281 L 7.339844 22.570312 L 4.292969 22.570312 Z M 13.429688 4.292969 L 10.386719 4.292969 L 10.386719 7.339844 L 13.429688 7.339844 Z M 16.476562 31.707031 L 19.523438 31.707031 L 19.523438 28.660156 L 16.476562 28.660156 Z M 28.660156 19.523438 L 31.707031 19.523438 L 31.707031 16.476562 L 28.660156 16.476562 Z M 28.660156 31.707031 C 30.34375 31.707031 31.707031 30.34375 31.707031 28.660156 L 28.660156 28.660156 Z M 28.660156 13.429688 L 31.707031 13.429688 L 31.707031 10.386719 L 28.660156 10.386719 Z M 28.660156 25.613281 L 31.707031 25.613281 L 31.707031 22.570312 L 28.660156 22.570312 Z M 22.570312 31.707031 L 25.613281 31.707031 L 25.613281 28.660156 L 22.570312 28.660156 Z M 22.570312 7.339844 L 25.613281 7.339844 L 25.613281 4.292969 L 22.570312 4.292969 Z M 10.386719 25.613281 L 25.613281 25.613281 L 25.613281 10.386719 L 10.386719 10.386719 Z M 13.429688 13.429688 L 22.570312 13.429688 L 22.570312 22.570312 L 13.429688 22.570312 Z M 13.429688 13.429688 "/>
</g>
</svg>
