<?xml version="1.0" encoding="UTF-8"?>
<svg xmlns="http://www.w3.org/2000/svg" xmlns:xlink="http://www.w3.org/1999/xlink" width="px" height="px" viewBox="0 0 17 27" version="1.1">
<g id="surface1">
<path style=" stroke:none;fill-rule:nonzero;fill:rgb(34.509804%,34.509804%,34.509804%);fill-opacity:1;" d="M 16.824219 25.023438 C 16.824219 25.023438 16.820312 25.019531 16.820312 25.019531 C 16.796875 24.921875 16.757812 24.832031 16.710938 24.746094 C 15.753906 22.089844 15.132812 19.328125 14.859375 16.523438 C 14.605469 14.199219 14.558594 11.527344 14.523438 8.6875 C 14.472656 5.835938 14.574219 2.984375 14.824219 0.144531 C 14.652344 0.0507812 14.460938 0 14.265625 0 C 12.320312 0.0117188 10.824219 5.296875 10.914062 11.808594 C 10.925781 12.625 10.964844 13.421875 11.019531 14.191406 C 11.984375 14.449219 12.644531 14.964844 12.652344 15.566406 L 12.660156 16.191406 C 12.664062 16.191406 12.664062 16.191406 12.667969 16.191406 C 12.488281 19.113281 11.9375 21.996094 11.019531 24.78125 C 10.972656 24.867188 10.9375 24.957031 10.914062 25.054688 C 10.914062 25.054688 10.914062 25.054688 10.914062 25.058594 C 10.898438 25.128906 10.886719 25.199219 10.886719 25.273438 C 10.898438 26.175781 12.246094 26.902344 13.894531 26.890625 C 15.542969 26.882812 16.871094 26.140625 16.859375 25.238281 C 16.855469 25.167969 16.84375 25.09375 16.824219 25.023438 Z M 16.824219 25.023438 "/>
<path style=" stroke:none;fill-rule:nonzero;fill:rgb(34.509804%,34.509804%,34.509804%);fill-opacity:1;" d="M 5.96875 6.316406 L 5.640625 1.78125 L 5.640625 0.453125 C 5.640625 0.203125 5.4375 0.00390625 5.183594 0 C 4.929688 0.00390625 4.726562 0.203125 4.726562 0.453125 L 4.726562 6.203125 C 4.65625 6.332031 4.519531 6.414062 4.367188 6.417969 C 4.25 6.421875 4.132812 6.375 4.050781 6.292969 C 3.964844 6.207031 3.917969 6.09375 3.917969 5.976562 L 3.847656 2.914062 L 3.847656 0.453125 C 3.847656 0.203125 3.640625 0.00390625 3.390625 0 C 3.136719 0.00390625 2.933594 0.207031 2.933594 0.453125 L 2.933594 6.25 C 2.859375 6.378906 2.726562 6.457031 2.578125 6.460938 C 2.457031 6.464844 2.34375 6.417969 2.257812 6.335938 C 2.171875 6.25 2.125 6.140625 2.125 6.019531 L 1.988281 2.707031 L 1.988281 0.453125 C 1.988281 0.203125 1.78125 0.00390625 1.53125 0 C 1.277344 0.00390625 1.074219 0.203125 1.074219 0.453125 L 1.074219 1.15625 L 0.457031 6.320312 C 0.433594 7.285156 1.199219 8.097656 2.390625 8.335938 C 2.140625 14.988281 1.28125 20.800781 0.140625 24.367188 C 0.09375 24.46875 0.0585938 24.578125 0.0351562 24.691406 C 0.0351562 24.691406 0.03125 24.695312 0.03125 24.699219 C 0.0117188 24.78125 0.00390625 24.867188 0 24.953125 C -0.0234375 26.023438 1.175781 26.894531 2.683594 26.894531 C 4.191406 26.890625 5.433594 26.023438 5.460938 24.949219 C 5.460938 24.863281 5.453125 24.777344 5.441406 24.695312 C 5.441406 24.691406 5.441406 24.691406 5.441406 24.6875 C 5.421875 24.574219 5.390625 24.46875 5.347656 24.363281 C 4.371094 20.796875 3.785156 14.988281 3.84375 8.332031 C 5.046875 8.097656 5.949219 7.285156 5.96875 6.316406 Z M 5.96875 6.316406 "/>
</g>
</svg>
