<?xml version="1.0" encoding="UTF-8"?>
<svg xmlns="http://www.w3.org/2000/svg" xmlns:xlink="http://www.w3.org/1999/xlink" width="px" height="px" viewBox="0 0 320 256" version="1.1">
<g id="surface1">
<path style=" stroke:none;fill-rule:nonzero;fill:rgb(0%,0%,0%);fill-opacity:1;" d="M 75.351562 46.386719 C 97.5 29.136719 125.898438 16 160 16 C 200.398438 16 232.75 34.421875 256.300781 56.300781 C 279.699219 78 295.351562 103.550781 302.75 121.851562 C 304.398438 125.800781 304.398438 130.199219 302.75 134.148438 C 296.050781 150.300781 282.601562 173.050781 262.800781 193.351562 L 315.398438 234.550781 C 320.601562 238.648438 321.550781 246.199219 317.449219 251.398438 C 313.351562 256.601562 305.800781 257.550781 300.601562 253.449219 L 4.597656 21.445312 C -0.617188 17.355469 -1.53125 9.816406 2.554688 4.597656 C 6.644531 -0.617188 14.183594 -1.53125 19.40625 2.554688 Z M 94.898438 61.75 L 117.898438 79.75 C 129.148438 69.949219 143.898438 64 160 64 C 195.351562 64 224 92.648438 224 128 C 224 138.601562 221.449219 148.550781 216.898438 157.351562 L 243.800781 178.449219 C 260.550781 161.398438 272.949219 141.550781 279.300781 128 C 272.050781 112.550781 259.199219 91.75 239.949219 73.851562 C 219.398438 54.800781 192.601562 39.550781 160 39.550781 C 134.75 39.550781 112.550781 48.863281 94.898438 61.75 Z M 197.449219 142.101562 C 199.101562 137.699219 200 132.949219 200 127.550781 C 200 105.898438 182.101562 87.550781 160 87.550781 C 159.648438 87.550781 159.351562 88 158.550781 88 C 159.648438 90.550781 160 93.25 160 95.550781 C 160 101.101562 158.800781 105.898438 156.699219 110.148438 Z M 202.148438 207.25 L 223.101562 223.75 C 204.949219 233.550781 183.898438 240 160 240 C 119.601562 240 87.25 221.601562 63.699219 199.699219 C 40.308594 177.550781 24.671875 152 17.230469 134.148438 C 15.589844 130.199219 15.589844 125.800781 17.230469 121.851562 C 22 110.398438 30.144531 95.601562 41.546875 80.75 L 60.398438 95.601562 C 51.050781 107.25 44.878906 118.800781 40.726562 127.550781 C 47.511719 143 60.800781 164.25 80.050781 182.148438 C 100.601562 201.199219 127.398438 216 160 216 C 175.351562 216 189.398438 212.699219 202.148438 207.25 Z M 96 127.550781 C 96 126.550781 96.050781 125.148438 96.148438 123.75 L 124.199219 145.851562 C 129.449219 156.398438 139.25 164.300781 151 166.550781 L 179.101562 189.101562 C 173.050781 190.550781 166.648438 192 159.550781 192 C 124.648438 192 95.550781 163.351562 95.550781 127.550781 Z M 96 127.550781 "/>
</g>
</svg>
