<?xml version="1.0" encoding="UTF-8"?>
<svg xmlns="http://www.w3.org/2000/svg" xmlns:xlink="http://www.w3.org/1999/xlink" width="px" height="px" viewBox="0 0 16 16" version="1.1">
<g id="surface1">
<path style=" stroke:none;fill-rule:evenodd;fill:rgb(20%,20%,20%);fill-opacity:1;" d="M 14.582031 5.234375 C 13.957031 5.070312 12.488281 5.074219 10.339844 5.015625 C 10.441406 4.546875 10.464844 4.125 10.464844 3.375 C 10.464844 1.578125 9.15625 0 8 0 C 7.183594 0 6.511719 0.667969 6.5 1.488281 C 6.488281 2.496094 6.175781 4.234375 4.5 5.117188 C 4.378906 5.179688 4.023438 5.355469 3.972656 5.378906 L 4 5.398438 C 3.738281 5.171875 3.375 5 3 5 L 1.5 5 C 0.671875 5 0 5.671875 0 6.5 L 0 14.5 C 0 15.328125 0.671875 16 1.5 16 L 3 16 C 3.59375 16 4.09375 15.640625 4.335938 15.136719 C 4.339844 15.136719 4.351562 15.140625 4.359375 15.140625 C 4.390625 15.152344 4.429688 15.160156 4.476562 15.171875 C 4.484375 15.175781 4.492188 15.175781 4.5 15.179688 C 4.789062 15.25 5.34375 15.382812 6.527344 15.65625 C 6.78125 15.714844 8.125 16 9.511719 16 L 12.246094 16 C 13.078125 16 13.679688 15.679688 14.039062 15.035156 C 14.042969 15.027344 14.15625 14.800781 14.253906 14.496094 C 14.324219 14.269531 14.347656 13.945312 14.261719 13.617188 C 14.800781 13.25 14.972656 12.691406 15.085938 12.328125 C 15.273438 11.734375 15.21875 11.285156 15.085938 10.964844 C 15.390625 10.679688 15.648438 10.246094 15.753906 9.582031 C 15.824219 9.171875 15.75 8.746094 15.558594 8.394531 C 15.84375 8.078125 15.972656 7.675781 15.988281 7.308594 L 15.992188 7.203125 C 15.996094 7.136719 16 7.097656 16 6.953125 C 16 6.320312 15.5625 5.515625 14.582031 5.234375 Z M 3.5 14.5 C 3.5 14.777344 3.277344 15 3 15 L 1.5 15 C 1.222656 15 1 14.777344 1 14.5 L 1 6.5 C 1 6.222656 1.222656 6 1.5 6 L 3 6 C 3.277344 6 3.5 6.222656 3.5 6.5 Z M 14.988281 7.265625 C 14.976562 7.515625 14.875 8 14 8 C 13.25 8 13 8 13 8 C 12.863281 8 12.75 8.113281 12.75 8.25 C 12.75 8.386719 12.863281 8.5 13 8.5 C 13 8.5 13.21875 8.5 13.96875 8.5 C 14.71875 8.5 14.816406 9.121094 14.769531 9.421875 C 14.707031 9.796875 14.53125 10.5 13.6875 10.5 C 12.84375 10.5 12.5 10.5 12.5 10.5 C 12.363281 10.5 12.25 10.613281 12.25 10.75 C 12.25 10.886719 12.363281 11 12.5 11 C 12.5 11 13.09375 11 13.484375 11 C 14.328125 11 14.253906 11.644531 14.132812 12.027344 C 13.972656 12.53125 13.875 13 12.8125 13 C 12.453125 13 11.996094 13 11.996094 13 C 11.859375 13 11.746094 13.113281 11.746094 13.25 C 11.746094 13.386719 11.859375 13.5 11.996094 13.5 C 11.996094 13.5 12.34375 13.5 12.78125 13.5 C 13.328125 13.5 13.351562 14.015625 13.296875 14.203125 C 13.234375 14.40625 13.160156 14.554688 13.15625 14.5625 C 13.007812 14.835938 12.761719 15 12.246094 15 L 9.511719 15 C 8.140625 15 6.777344 14.6875 6.742188 14.679688 C 4.667969 14.203125 4.558594 14.164062 4.425781 14.128906 C 4.425781 14.128906 4.003906 14.054688 4.003906 13.6875 L 4 6.78125 C 4 6.546875 4.148438 6.335938 4.398438 6.261719 C 4.429688 6.25 4.46875 6.234375 4.5 6.222656 C 6.785156 5.277344 7.480469 3.203125 7.5 1.5 C 7.503906 1.261719 7.6875 1 8 1 C 8.527344 1 9.464844 2.0625 9.464844 3.375 C 9.464844 4.558594 9.414062 4.765625 9 6 C 14 6 13.964844 6.070312 14.40625 6.1875 C 14.953125 6.34375 15 6.796875 15 6.953125 C 15 7.125 14.996094 7.097656 14.988281 7.265625 Z M 14.988281 7.265625 "/>
<path style=" stroke:none;fill-rule:evenodd;fill:rgb(20%,20%,20%);fill-opacity:1;" d="M 2.25 13 C 1.835938 13 1.5 13.335938 1.5 13.75 C 1.5 14.164062 1.835938 14.5 2.25 14.5 C 2.664062 14.5 3 14.164062 3 13.75 C 3 13.335938 2.664062 13 2.25 13 Z M 2.25 14 C 2.113281 14 2 13.886719 2 13.75 C 2 13.613281 2.113281 13.5 2.25 13.5 C 2.386719 13.5 2.5 13.613281 2.5 13.75 C 2.5 13.886719 2.386719 14 2.25 14 Z M 2.25 14 "/>
</g>
</svg>
